<?xml version="1.0" standalone="no"?>
<!DOCTYPE svg PUBLIC "-//W3C//DTD SVG 20010904//EN"
 "http://www.w3.org/TR/2001/REC-SVG-20010904/DTD/svg10.dtd">
<svg version="1.0" xmlns="http://www.w3.org/2000/svg"
 width="280.000000pt" height="280.000000pt" viewBox="0 0 280.000000 280.000000"
 preserveAspectRatio="xMidYMid meet">
<metadata>
Created by potrace 1.11, written by Peter Selinger 2001-2013
</metadata>
<g transform="translate(0.000000,280.000000) scale(0.100000,-0.100000)"
fill="#000000" stroke="none">
<path d="M1690 2290 l0 -50 -200 0 -200 0 0 -50 0 -50 -100 0 -100 0 0 -50 0
-50 -100 0 -100 0 0 -50 0 -50 50 0 50 0 0 -50 0 -50 -50 0 -50 0 0 -200 0
-200 -50 0 -50 0 0 -100 0 -100 -50 0 -50 0 0 -50 0 -50 -50 0 -50 0 0 -100 0
-100 100 0 100 0 0 -150 0 -150 50 0 50 0 0 200 0 200 -100 0 -100 0 0 50 0
50 100 0 100 0 0 150 0 150 100 0 100 0 0 -50 0 -50 100 0 100 0 0 150 0 150
200 0 200 0 0 -50 0 -50 150 0 150 0 0 -50 0 -50 -50 0 -50 0 0 -100 0 -100
100 0 100 0 0 50 0 50 50 0 50 0 0 150 0 150 100 0 100 0 0 350 0 350 -350 0
-350 0 0 -50z m200 -600 l0 -50 -50 0 -50 0 0 50 0 50 50 0 50 0 0 -50z"/>
<path d="M1190 990 l0 -250 50 0 50 0 0 -100 0 -100 50 0 50 0 0 -150 0 -150
50 0 50 0 0 200 0 200 -50 0 -50 0 0 50 0 50 100 0 100 0 0 250 0 250 -200 0
-200 0 0 -250z"/>
<path d="M2190 990 l0 -250 50 0 50 0 0 -100 0 -100 50 0 50 0 0 350 0 350
-100 0 -100 0 0 -250z"/>
</g>
</svg>
